<?xml version="1.0" standalone="no"?>
<!DOCTYPE svg PUBLIC "-//W3C//DTD SVG 20010904//EN"
 "http://www.w3.org/TR/2001/REC-SVG-20010904/DTD/svg10.dtd">
<svg version="1.0" xmlns="http://www.w3.org/2000/svg"
 width="5092.000000pt" height="5092.000000pt" viewBox="0 0 5092.000000 5092.000000"
 preserveAspectRatio="xMidYMid meet">
<metadata>
Created by potrace 1.11, written by Peter Selinger 2001-2013
</metadata>
<g transform="translate(0.000000,5092.000000) scale(0.100000,-0.100000)"
fill="#000000" stroke="none">
<path d="M25549 50009 c-7 -4 -16 -6 -20 -3 -15 9 -179 -62 -179 -77 0 -6 -4
-8 -9 -5 -5 3 -14 -1 -21 -9 -7 -8 -18 -15 -24 -15 -6 0 -20 -11 -30 -25 -10
-14 -24 -25 -30 -25 -13 0 -24026 -24011 -24026 -24024 0 -5 -10 -18 -22 -30
-13 -12 -30 -35 -38 -51 -8 -17 -19 -33 -25 -37 -5 -4 -10 -11 -11 -15 0 -4
-11 -30 -24 -58 -19 -41 -23 -68 -24 -155 -1 -122 11 -163 82 -275 36 -57
2325 -2351 12093 -12120 6626 -6627 12051 -12046 12055 -12042 4 3 23 -6 43
-22 48 -38 145 -77 200 -80 25 -1 47 -4 50 -5 6 -4 78 7 119 18 12 3 31 8 43
11 12 2 27 9 35 16 8 6 14 8 14 3 0 -4 7 1 15 12 8 10 15 15 15 10 0 -4 20 8
44 27 24 20 46 33 50 30 10 -10 24076 24059 24076 24078 0 9 9 24 20 34 11 10
38 56 61 103 37 75 43 95 47 172 5 98 -16 184 -63 252 -14 20 -25 41 -25 45 0
5 -27 38 -60 75 -33 36 -60 70 -60 75 0 11 -23892 23903 -23903 23903 -5 0
-38 27 -74 60 -36 33 -70 60 -76 60 -6 0 -25 11 -43 25 -18 14 -39 25 -46 25
-8 0 -19 5 -24 10 -6 6 -24 13 -40 15 -16 3 -40 8 -54 11 -40 10 -97 12 -111
3z m312 -1740 c10 -5 19 -7 19 -4 0 3 15 -2 33 -12 17 -9 34 -18 37 -18 3 0
16 -7 30 -15 14 -8 28 -14 32 -15 4 0 46 -34 93 -75 108 -95 22066 -22053
22160 -22160 38 -44 72 -85 74 -92 2 -7 11 -24 21 -38 49 -73 75 -191 59 -270
-11 -57 -56 -162 -71 -168 -4 -2 -8 -8 -8 -14 0 -14 -67 -96 -112 -137 -21
-19 -38 -39 -38 -45 0 -10 -22091 -22099 -22218 -22217 -30 -27 -56 -49 -58
-49 -8 0 -68 -44 -76 -55 -4 -5 -11 -10 -15 -11 -4 0 -26 -9 -48 -19 -22 -10
-46 -18 -52 -18 -7 0 -13 -3 -13 -7 0 -18 -162 -15 -198 4 -18 9 -32 14 -32
11 0 -3 -10 0 -22 7 -13 7 -26 12 -29 11 -3 -1 -29 16 -57 38 -29 21 -58 39
-65 39 -16 0 -22211 22197 -22228 22231 -8 14 -29 47 -47 74 -75 113 -93 229
-55 340 26 75 52 125 64 125 5 0 9 5 9 11 0 15 65 95 108 132 17 16 32 34 32
41 0 6 4986 4997 11080 11091 6094 6094 11080 11076 11080 11071 0 -5 31 21
70 57 38 37 82 74 97 84 16 10 31 21 34 26 3 5 9 9 12 8 4 0 24 7 44 16 21 9
44 16 51 16 6 0 12 3 12 7 0 3 14 7 32 8 18 2 34 4 36 6 7 7 104 -4 123 -15z"/>
<path d="M25710 46671 c0 -3 -13 -7 -29 -8 -36 -3 -135 -46 -177 -78 -17 -13
-35 -21 -38 -17 -9 8 -20786 -20769 -20786 -20786 0 -7 -11 -28 -24 -45 -65
-89 -89 -170 -84 -287 4 -86 8 -103 42 -173 21 -42 56 -97 77 -121 22 -24 39
-48 39 -53 0 -13 471 -473 529 -518 29 -22 56 -40 60 -40 3 0 21 -10 38 -23
18 -13 33 -21 33 -17 0 3 10 -1 22 -9 35 -21 103 -37 158 -36 68 1 90 4 90 10
0 3 10 6 23 7 12 0 45 11 72 23 28 13 53 23 58 22 4 -1 7 3 7 8 0 6 10 14 22
19 13 5 57 41 100 80 42 39 80 71 85 71 4 0 2009 2001 4455 4447 2446 2446
4450 4444 4454 4440 4 -4 15 3 25 15 11 11 19 17 19 13 0 -4 8 -1 18 8 17 15
59 35 95 43 9 2 27 7 40 10 52 15 168 5 209 -17 13 -7 23 -11 23 -8 0 2 18 -7
40 -21 22 -13 47 -27 55 -31 8 -4 45 -35 83 -69 37 -34 67 -58 67 -53 0 4 142
-134 315 -307 173 -173 315 -319 315 -324 0 -5 28 -38 63 -75 89 -95 154 -195
236 -366 82 -172 109 -224 176 -350 142 -263 212 -456 265 -725 37 -186 37
-915 1 -1140 -8 -50 -35 -159 -74 -295 -36 -123 -508 -1528 -526 -1563 -5 -9
-13 -28 -19 -42 -22 -54 -181 -370 -192 -380 -3 -3 -12 -21 -21 -40 -112 -243
-119 -258 -119 -269 0 -6 -4 -11 -10 -11 -5 0 -10 -4 -10 -9 0 -11 -25 -64
-60 -126 -16 -27 -63 -120 -105 -205 -42 -85 -95 -191 -118 -235 -22 -44 -45
-90 -51 -102 -6 -13 -14 -23 -18 -23 -5 0 -8 -5 -8 -11 0 -6 -13 -28 -30 -49
-16 -21 -30 -43 -30 -49 0 -6 -9 -16 -20 -23 -11 -7 -20 -17 -20 -21 0 -8 -15
-28 -60 -84 -6 -7 -10 -15 -10 -18 0 -4 -11 -21 -25 -39 -14 -18 -25 -37 -25
-41 0 -4 -11 -23 -25 -41 -14 -18 -25 -36 -25 -40 0 -3 -10 -23 -22 -43 -13
-20 -23 -38 -24 -41 0 -3 -10 -27 -22 -53 -12 -27 -22 -52 -22 -57 0 -5 -3
-10 -7 -12 -5 -1 -24 -34 -43 -73 -19 -38 -37 -72 -40 -75 -3 -3 -19 -26 -35
-52 -17 -27 -33 -48 -37 -48 -5 0 -8 -5 -8 -11 0 -7 -16 -31 -35 -55 -19 -23
-35 -45 -35 -49 0 -4 -15 -25 -33 -48 -45 -57 -83 -122 -147 -252 -30 -60 -58
-112 -61 -115 -3 -3 -11 -21 -19 -40 -7 -19 -22 -47 -32 -62 -10 -14 -18 -31
-18 -37 0 -5 -6 -14 -13 -18 -7 -4 -21 -25 -32 -45 -11 -21 -23 -38 -27 -38
-5 0 -8 -5 -8 -11 0 -6 -16 -30 -35 -53 -19 -24 -35 -46 -35 -51 0 -4 -18 -29
-40 -55 -22 -26 -40 -53 -40 -59 0 -6 -3 -11 -7 -11 -5 0 -13 -10 -19 -23
-126 -253 -227 -441 -253 -472 -10 -11 -25 -33 -35 -48 -18 -30 -92 -116 -157
-183 -21 -23 -39 -44 -39 -48 0 -4 -23 -33 -50 -65 -28 -32 -50 -60 -50 -63 0
-3 -15 -28 -33 -54 -17 -27 -70 -125 -116 -219 -47 -93 -92 -175 -100 -182 -9
-7 -12 -13 -8 -13 5 0 -5 -18 -22 -39 -17 -21 -31 -43 -31 -47 0 -9 -101 -128
-175 -206 -19 -21 -35 -41 -35 -44 0 -3 -22 -31 -50 -62 -27 -31 -50 -60 -50
-65 0 -4 -11 -23 -25 -41 -14 -18 -25 -38 -25 -44 0 -6 -4 -12 -8 -14 -4 -1
-41 -70 -82 -153 -84 -170 -148 -281 -197 -341 -18 -23 -33 -46 -33 -52 0 -7
-9 -17 -20 -24 -11 -7 -20 -16 -20 -20 0 -4 -21 -37 -47 -75 -26 -37 -62 -97
-81 -133 -54 -101 -86 -165 -87 -170 -2 -10 -30 -65 -35 -70 -3 -3 -14 -23
-25 -45 -11 -22 -22 -42 -25 -45 -10 -10 -31 -45 -36 -62 -4 -10 -10 -18 -15
-18 -5 0 -9 -5 -9 -11 0 -7 -26 -41 -57 -76 -32 -36 -65 -75 -73 -88 -8 -12
-48 -60 -88 -106 -87 -100 -83 -95 -108 -139 -10 -19 -21 -37 -25 -40 -17 -16
-58 -95 -157 -300 -14 -30 -30 -56 -34 -58 -4 -2 -8 -8 -8 -14 0 -6 -10 -25
-23 -42 -13 -17 -26 -39 -30 -48 -3 -10 -11 -18 -17 -18 -5 0 -10 -6 -10 -13
0 -8 -11 -24 -25 -37 -14 -13 -25 -27 -25 -32 0 -5 -27 -35 -60 -67 -33 -32
-60 -62 -60 -66 0 -4 -57 -66 -126 -138 -70 -73 -130 -141 -135 -152 -5 -11
-29 -49 -54 -84 -25 -36 -45 -71 -45 -78 0 -7 -3 -13 -8 -13 -4 0 -16 -20 -27
-45 -11 -25 -23 -45 -27 -45 -5 0 -8 -5 -8 -10 0 -15 -64 -145 -100 -205 -17
-27 -33 -57 -37 -65 -3 -8 -23 -36 -44 -62 -22 -26 -39 -49 -39 -52 0 -4 -11
-19 -24 -34 -13 -15 -51 -58 -85 -97 -33 -38 -61 -74 -61 -78 0 -5 -11 -23
-25 -41 -14 -18 -25 -38 -25 -44 0 -7 -4 -12 -10 -12 -5 0 -10 -11 -10 -25 0
-14 -4 -25 -9 -25 -10 0 -20 -47 -28 -132 -9 -109 29 -216 123 -340 44 -57
504 -528 517 -528 5 0 30 -19 58 -43 27 -23 50 -40 51 -37 2 3 17 -4 33 -16
28 -19 80 -43 115 -53 26 -7 204 -6 233 1 16 4 35 12 43 19 8 6 14 8 14 4 0
-4 11 0 25 9 14 9 25 14 25 11 0 -3 6 -1 13 5 47 39 118 90 124 90 12 0 243
233 243 245 0 5 9 18 20 30 35 35 70 83 70 94 0 6 3 11 8 11 4 0 12 10 18 23
6 12 30 60 54 107 23 47 50 101 59 120 9 19 19 37 24 38 4 2 7 15 7 28 0 13 3
24 8 24 4 0 16 19 26 43 11 23 30 56 43 74 13 17 23 36 23 42 0 6 4 11 8 11 5
0 13 10 19 22 6 13 51 66 102 119 50 54 91 100 91 104 0 4 90 99 200 212 110
112 200 210 200 218 0 7 3 15 8 17 9 4 45 55 73 105 40 69 159 311 159 322 0
6 5 11 10 11 6 0 10 5 10 12 0 6 11 26 25 44 14 18 25 36 25 40 0 4 18 29 40
55 22 26 40 50 40 54 0 3 27 32 60 64 33 32 60 62 60 66 0 4 59 68 130 142 72
75 130 139 130 144 0 5 15 28 33 52 17 23 41 60 52 82 11 22 22 42 25 45 3 3
14 23 25 45 11 22 22 42 25 45 3 3 12 21 21 40 50 108 74 155 81 158 4 2 8 8
8 14 0 6 11 26 25 44 14 18 25 37 25 42 0 4 16 27 35 49 19 23 35 44 35 48 0
3 16 23 34 43 81 86 136 149 136 156 0 4 14 19 30 33 17 13 30 30 30 36 1 7
14 28 30 47 17 19 30 38 30 43 0 4 11 23 25 41 14 18 25 38 25 44 0 6 3 12 8
14 4 2 14 19 24 38 109 231 151 310 171 318 4 2 7 8 7 14 0 6 17 31 38 56 20
25 39 51 42 58 3 7 42 53 88 103 45 49 82 93 82 98 0 4 11 17 25 27 14 10 25
23 25 28 0 5 15 28 33 51 35 45 47 65 86 142 14 28 28 52 31 55 4 3 12 21 20
40 8 19 34 73 58 120 25 47 50 95 56 107 6 13 14 23 19 23 4 0 7 5 7 11 0 6
14 28 30 49 17 21 30 41 30 45 0 4 18 29 40 55 22 26 40 51 40 54 0 4 18 31
40 60 22 29 40 56 40 60 0 4 12 23 26 42 15 19 23 34 20 34 -4 0 1 12 12 28
21 30 82 157 82 171 0 5 3 11 8 13 4 2 23 35 42 73 30 61 75 131 110 172 5 7
10 15 10 19 0 4 16 26 35 50 19 23 35 45 35 49 0 4 16 26 35 49 19 24 35 46
35 50 0 5 8 20 19 34 39 56 106 182 103 195 -1 4 3 7 8 7 6 0 10 5 10 12 0 18
84 182 98 191 6 4 12 13 12 19 0 6 11 26 25 44 14 18 25 37 25 43 0 6 9 16 20
23 11 7 20 17 20 21 0 10 52 81 63 85 4 2 7 8 7 14 0 6 12 27 28 47 25 33 36
51 66 106 6 11 16 23 21 27 6 4 10 11 10 15 1 14 60 128 68 131 4 2 7 14 7 27
0 13 3 25 8 27 8 4 62 112 62 127 0 5 3 11 8 13 4 2 23 35 42 73 19 39 37 72
40 75 3 3 34 64 69 135 34 72 67 138 72 147 5 10 9 24 9 32 0 8 3 16 8 18 6 2
64 112 67 128 3 10 30 65 35 70 3 3 14 23 25 45 11 22 22 42 25 45 13 12 180
363 180 379 0 5 3 11 8 13 8 4 62 112 62 127 0 5 3 11 8 13 4 2 27 41 51 88
67 128 139 270 142 278 14 44 89 204 103 222 7 8 19 31 26 50 8 19 19 38 24
42 6 4 12 11 12 15 3 19 29 73 35 73 4 0 10 14 14 30 4 17 11 30 16 30 5 0 9
5 9 11 0 6 10 32 23 58 13 25 25 51 27 56 3 12 10 30 43 115 22 57 60 167 72
210 4 16 22 68 39 115 6 17 11 32 11 35 0 3 5 19 12 35 6 17 18 53 26 80 9 28
25 77 37 110 11 33 25 74 31 90 6 17 12 37 14 45 4 15 7 25 45 135 12 33 30
88 40 122 10 34 21 67 25 73 3 6 8 23 11 38 2 15 8 38 13 52 10 27 20 71 45
185 25 117 36 343 36 754 0 367 1 393 20 444 18 48 60 113 60 92 0 -4 7 -2 15
5 28 23 114 15 190 -19 25 -11 48 -20 51 -20 3 0 16 -7 30 -15 13 -9 24 -14
24 -11 0 4 13 -3 29 -14 16 -12 34 -21 40 -21 7 0 23 -7 36 -16 14 -9 25 -13
25 -10 0 4 11 -1 24 -10 14 -8 27 -15 31 -15 3 1 19 -6 35 -14 17 -9 30 -13
30 -10 0 2 25 -6 55 -20 30 -13 55 -22 55 -20 0 2 20 -4 44 -15 24 -10 47 -16
50 -13 3 4 6 2 6 -4 0 -5 6 -10 13 -11 23 -1 53 -10 93 -27 21 -9 47 -19 57
-21 36 -9 54 -14 112 -34 33 -12 68 -23 77 -25 9 -2 26 -9 37 -15 12 -6 21 -9
21 -6 0 3 15 -1 34 -9 18 -8 44 -16 57 -19 13 -2 37 -9 53 -15 16 -7 31 -9 34
-7 2 3 13 1 22 -4 10 -5 33 -12 51 -14 19 -2 41 -7 49 -10 17 -6 98 -16 180
-22 71 -5 1288 -6 1361 0 31 2 76 7 100 12 24 4 51 8 59 9 8 1 25 5 36 9 12 3
35 9 50 11 16 2 40 7 54 10 14 4 31 7 38 7 6 1 12 4 12 7 0 4 11 8 26 9 14 1
33 6 43 12 10 5 21 6 25 3 3 -3 6 -2 6 3 0 5 11 11 26 12 14 1 33 6 43 12 10
5 21 6 25 3 3 -3 6 -2 6 4 0 5 6 10 13 11 21 1 49 10 117 34 36 14 70 25 75
26 6 1 39 12 75 24 36 12 68 21 73 20 4 -1 7 2 7 6 0 4 10 8 22 9 11 1 24 6
27 10 6 7 12 10 51 18 31 7 246 99 270 115 14 10 28 18 33 19 13 2 112 53 127
66 8 8 18 14 22 15 18 3 85 34 108 50 14 10 28 18 33 19 15 1 122 55 128 64 3
5 8 8 10 7 10 -5 139 63 139 72 0 6 3 8 7 5 3 -4 21 5 40 19 18 14 33 22 33
19 0 -4 18 8 40 25 22 17 40 29 40 25 0 -7 91 55 102 70 4 6 8 6 8 2 0 -4 16
4 35 19 19 14 35 24 35 20 0 -8 82 45 92 59 4 5 8 6 8 2 0 -4 16 4 35 19 19
14 35 23 35 19 0 -4 18 8 40 25 22 17 40 28 40 23 0 -4 4 -3 8 2 4 6 27 24 52
40 25 17 47 33 48 38 2 4 8 7 14 7 6 0 26 11 44 25 18 14 36 25 40 25 4 0 22
11 40 25 18 14 35 25 39 25 3 0 11 4 18 10 44 36 117 90 123 90 3 0 28 18 55
41 27 22 49 37 49 32 0 -4 4 -3 8 2 11 16 96 82 104 81 3 0 16 12 28 27 12 15
25 26 28 23 2 -3 26 12 52 34 26 22 50 37 53 34 3 -3 12 3 19 15 7 12 17 21
21 21 5 0 22 10 37 23 15 12 37 29 50 37 12 8 47 34 76 58 30 24 54 40 54 37
0 -4 24 14 54 39 29 25 56 46 60 46 7 0 12 3 69 51 20 17 37 28 37 25 0 -4 14
9 31 29 18 20 34 33 37 31 2 -3 37 24 77 59 40 36 76 65 80 65 5 0 15 7 24 15
9 8 36 31 61 50 25 19 55 44 68 55 12 11 22 18 22 15 0 -4 29 18 64 49 35 31
67 56 71 56 4 0 40 29 80 65 40 36 76 65 79 65 4 0 23 16 44 35 70 65 200 175
207 175 4 0 45 34 90 75 46 41 87 75 91 75 5 0 24 16 44 35 19 19 67 62 105
95 39 34 93 84 120 111 28 27 55 49 61 49 11 0 464 452 464 464 0 4 22 31 49
60 27 28 74 80 106 116 31 36 74 83 96 106 21 23 39 44 39 49 0 4 32 42 70 85
39 43 70 81 70 85 0 4 32 42 70 85 39 43 70 82 70 87 0 4 18 24 40 43 22 19
40 38 40 43 0 5 27 39 60 76 33 37 60 71 60 75 0 4 26 38 58 75 31 37 66 81
77 96 11 16 39 52 63 81 23 29 42 56 42 60 0 4 29 39 65 79 36 40 65 78 65 83
0 6 14 22 30 35 17 14 30 29 30 32 0 6 24 38 63 85 6 8 12 17 12 20 0 4 19 29
43 57 23 28 42 54 42 58 0 4 18 29 40 55 22 26 40 53 40 59 0 6 7 14 15 17 8
4 15 10 15 16 0 5 18 31 40 57 22 26 40 51 40 55 0 4 16 27 35 50 19 24 35 48
35 54 0 6 8 17 18 24 9 7 22 20 27 29 29 46 51 75 67 87 10 7 18 18 18 24 0 7
18 33 40 59 22 26 40 51 40 55 0 4 16 26 35 50 19 23 35 47 35 53 0 6 4 11 10
11 5 0 17 17 27 38 9 20 22 40 27 44 6 4 11 11 11 15 0 4 10 22 23 40 12 17
22 36 22 42 0 7 7 14 15 17 8 4 15 10 15 14 0 5 25 45 55 89 30 44 55 83 55
87 0 3 8 18 19 32 10 15 28 44 40 65 75 133 103 180 128 213 13 17 23 34 23
38 0 4 11 22 24 39 13 18 34 52 47 77 13 25 26 47 29 50 3 3 14 23 25 45 11
22 29 56 41 75 12 19 22 38 22 43 3 15 57 122 65 125 4 2 7 8 7 14 0 5 15 40
34 76 18 37 56 112 84 167 50 97 91 188 92 203 1 4 7 16 14 27 7 11 21 48 31
83 10 34 22 62 27 62 4 0 8 6 8 13 0 8 9 40 20 73 12 32 22 64 23 69 1 6 7 24
13 40 6 17 17 48 23 70 7 22 18 56 26 75 7 19 18 55 25 80 7 25 19 63 26 85
25 72 62 224 56 229 -2 3 0 12 6 19 6 7 18 75 27 151 12 109 15 269 15 769 0
779 -4 819 -120 1167 -23 69 -52 159 -65 200 -79 257 -152 443 -237 605 -37
72 -108 213 -158 315 -119 242 -135 272 -189 354 -25 38 -50 76 -56 85 -9 14
-82 110 -105 138 -6 7 -10 15 -10 19 0 4 -6 15 -14 23 -21 25 -58 91 -152 276
-104 206 -116 227 -176 298 -27 30 -48 59 -48 64 0 4 -715 724 -1590 1598
-874 874 -1590 1586 -1590 1582 0 -4 -27 15 -61 43 -60 50 -88 65 -178 96 -46
16 -181 27 -181 15z m-1231 -3524 c12 -4 29 -11 35 -17 7 -5 16 -7 19 -3 4 3
7 0 7 -7 0 -7 3 -10 7 -7 3 4 21 -4 38 -18 18 -13 35 -22 37 -20 3 3 41 -29
86 -71 45 -42 82 -73 82 -69 0 4 520 -512 1155 -1147 635 -636 1155 -1159
1155 -1163 0 -4 30 -40 68 -79 128 -135 217 -292 287 -506 15 -47 31 -89 35
-95 8 -12 81 -237 138 -425 41 -138 62 -224 81 -341 14 -84 15 -1199 1 -1284
-5 -33 -12 -80 -15 -104 -3 -24 -8 -47 -10 -52 -3 -4 -10 -31 -15 -61 -6 -29
-20 -84 -31 -123 -46 -151 -203 -614 -236 -694 -32 -77 -191 -399 -203 -411
-9 -9 -60 -118 -60 -129 0 -6 -4 -11 -10 -11 -5 0 -10 -6 -10 -14 0 -13 -44
-101 -104 -210 -11 -21 -27 -49 -34 -62 -7 -13 -17 -24 -21 -24 -5 0 -11 -8
-15 -17 -5 -16 -16 -36 -38 -67 -5 -6 -28 -37 -53 -68 -25 -31 -45 -60 -45
-64 0 -4 -6 -15 -14 -23 -17 -20 -58 -89 -93 -161 -15 -30 -30 -57 -33 -60 -3
-3 -15 -26 -28 -52 -12 -27 -32 -69 -45 -95 -12 -27 -25 -49 -29 -51 -5 -2 -8
-8 -8 -14 0 -6 -11 -26 -25 -44 -14 -18 -25 -36 -25 -40 0 -9 -76 -105 -142
-178 -81 -90 -511 -526 -515 -522 -2 2 -31 -24 -64 -58 -34 -33 -62 -59 -63
-56 -1 3 -22 -12 -47 -32 -25 -21 -49 -38 -53 -38 -3 0 -25 -13 -48 -30 -22
-16 -45 -30 -50 -30 -6 0 -22 -9 -36 -19 -15 -10 -31 -20 -37 -21 -20 -5 -120
-55 -126 -63 -3 -5 -10 -9 -15 -9 -15 -1 -57 -21 -85 -40 -14 -9 -29 -15 -33
-11 -3 3 -6 1 -6 -6 0 -6 -10 -15 -23 -20 -13 -5 -37 -21 -55 -36 -18 -15 -32
-24 -32 -20 0 4 -22 -12 -50 -35 -27 -23 -50 -39 -50 -34 0 4 -11 -5 -25 -20
-14 -15 -25 -24 -25 -21 0 6 -21 -10 -77 -56 -7 -5 -13 -7 -13 -4 0 3 -15 -5
-33 -19 -19 -15 -39 -26 -45 -26 -7 0 -12 -5 -12 -12 0 -6 -3 -8 -7 -5 -3 4
-12 2 -20 -4 -7 -6 -13 -8 -13 -3 0 5 -4 4 -8 -1 -9 -13 -124 -70 -134 -67 -5
1 -8 -3 -8 -10 0 -6 -3 -8 -6 -5 -4 4 -20 -3 -35 -14 -16 -11 -29 -18 -29 -16
0 5 -48 -19 -175 -88 -84 -45 -168 -89 -175 -90 -3 0 -15 -6 -27 -13 -13 -7
-23 -9 -23 -5 0 4 -6 1 -13 -7 -7 -9 -19 -15 -27 -15 -8 0 -18 -4 -22 -9 -3
-5 -14 -11 -22 -13 -33 -7 -42 -9 -62 -21 -12 -6 -24 -8 -28 -5 -3 3 -6 2 -6
-4 0 -5 -6 -10 -12 -10 -7 -1 -51 -15 -98 -33 -47 -17 -89 -33 -95 -34 -5 -1
-41 -13 -80 -26 -38 -13 -73 -23 -77 -22 -5 1 -8 -3 -8 -10 0 -6 -3 -9 -6 -6
-3 4 -20 2 -37 -3 -47 -15 -70 -21 -84 -21 -7 -1 -13 -6 -13 -11 0 -6 -3 -8
-6 -5 -3 4 -20 0 -38 -7 -18 -8 -44 -16 -57 -19 -13 -3 -35 -8 -49 -11 -14 -4
-31 -7 -37 -7 -7 -1 -13 -4 -13 -8 0 -3 -10 -7 -22 -8 -26 -2 -50 -6 -93 -15
-47 -10 -102 -17 -200 -24 -117 -8 -1032 -8 -1110 0 -101 11 -139 16 -165 22
-14 3 -34 8 -45 10 -11 2 -31 6 -45 10 -14 3 -34 8 -45 9 -11 2 -33 9 -49 15
-16 6 -31 10 -33 7 -3 -2 -26 5 -51 16 -26 11 -55 22 -64 24 -38 9 -55 14
-120 38 -38 13 -68 22 -68 20 0 -3 -13 2 -30 11 -16 9 -30 13 -30 11 0 -3 -21
4 -47 15 -27 12 -56 23 -65 25 -10 2 -26 6 -35 8 -10 2 -39 13 -65 25 -27 11
-48 18 -48 15 0 -2 -11 3 -25 12 -14 9 -25 13 -25 10 0 -4 -12 0 -27 8 -16 8
-50 24 -78 37 -27 12 -58 29 -67 37 -10 8 -18 11 -18 7 0 -5 -7 0 -15 11 -8
10 -15 15 -15 10 0 -5 -24 12 -54 37 -29 26 -56 43 -60 40 -11 -11 -2528 2515
-2573 2582 -106 160 -127 265 -79 395 31 83 45 110 92 171 42 53 6211 6228
6217 6223 2 -2 14 7 27 21 13 14 29 25 36 25 6 0 14 7 18 15 3 8 10 15 17 15
6 0 24 9 40 21 16 11 29 18 29 16 0 -3 21 3 48 13 47 17 165 21 221 7z"/>
<path d="M24079 40266 c-6 -6 -57 -16 -96 -18 -13 -1 -23 -6 -23 -10 0 -4 -3
-7 -7 -6 -14 5 -108 -34 -120 -49 -6 -8 -15 -13 -19 -12 -13 5 -169 -144 -183
-174 -7 -15 -18 -33 -25 -40 -10 -10 -109 -202 -112 -217 -1 -9 -29 -65 -34
-70 -3 -3 -34 -63 -69 -135 -35 -71 -68 -138 -73 -149 -27 -53 -61 -183 -73
-279 -28 -230 26 -420 148 -522 25 -21 47 -36 48 -34 2 2 19 -6 37 -19 17 -13
32 -21 32 -17 0 3 9 1 21 -5 43 -23 116 -34 234 -34 145 -1 245 17 340 59 22
10 42 19 45 19 6 1 120 75 160 103 14 10 39 33 56 50 17 18 36 33 41 33 12 0
53 43 53 56 0 5 17 26 38 46 45 45 82 92 82 107 0 6 4 11 9 11 11 0 71 116 71
136 0 7 4 14 9 16 4 2 20 50 35 108 54 213 45 641 -15 762 -5 10 -9 22 -9 28
0 17 -66 113 -99 144 -17 17 -31 26 -31 22 0 -4 -16 5 -35 19 -18 15 -40 28
-47 29 -7 1 -17 4 -23 7 -10 6 -56 20 -90 27 -35 7 -270 14 -276 8z"/>
<path d="M21784 37631 c-2 -2 -16 -5 -31 -7 -15 -1 -44 -6 -63 -10 -19 -3 -44
-8 -55 -9 -47 -7 -229 -84 -280 -119 -16 -12 -31 -20 -32 -19 -3 3 -70 -28
-103 -47 -14 -8 -27 -15 -30 -15 -15 -3 -126 -62 -132 -70 -4 -5 -8 -6 -8 -2
0 5 -15 -2 -32 -15 -18 -13 -34 -22 -36 -20 -4 4 -67 -30 -74 -42 -4 -6 -8 -7
-8 -2 0 5 -11 -1 -25 -14 -14 -13 -25 -20 -25 -17 0 4 -36 -32 -80 -79 -44
-48 -80 -93 -80 -100 0 -8 -3 -14 -8 -14 -10 0 -49 -104 -67 -183 -17 -76 -20
-248 -6 -323 19 -98 51 -163 113 -229 54 -58 115 -106 143 -112 42 -9 56 -13
65 -18 10 -6 32 -12 80 -21 14 -2 75 -7 135 -9 61 -3 116 -7 123 -10 6 -2 12
-1 12 3 0 4 39 7 87 7 92 0 200 9 243 20 14 3 36 8 49 11 13 3 39 11 57 19 18
7 35 11 38 7 3 -3 6 0 6 6 0 7 3 11 8 10 12 -3 135 60 182 94 24 18 63 52 86
75 23 23 44 40 47 37 2 -3 15 9 28 26 13 17 43 51 67 76 23 24 42 47 42 50 0
4 12 23 28 43 62 82 136 270 143 366 14 186 -3 317 -57 425 -22 46 -161 187
-172 176 -3 -3 -16 1 -29 9 -13 9 -23 13 -23 10 0 -3 -9 -1 -19 4 -10 6 -36
13 -57 16 -22 3 -50 8 -64 10 -33 6 -181 11 -186 6z"/>
<path d="M25237 37633 c-1 -1 -22 -4 -47 -6 -25 -3 -61 -9 -80 -12 -19 -4 -43
-8 -52 -8 -10 -1 -18 -6 -18 -11 0 -5 -3 -6 -7 -3 -3 4 -17 0 -30 -8 -13 -9
-23 -13 -23 -9 0 3 -11 -1 -25 -10 -14 -9 -25 -13 -25 -9 0 5 -4 3 -8 -2 -4
-6 -26 -23 -49 -39 -64 -43 -173 -160 -173 -185 0 -6 -3 -11 -8 -11 -4 0 -16
-20 -27 -45 -11 -25 -23 -45 -27 -45 -5 0 -8 -5 -8 -11 0 -25 -98 -207 -141
-261 -16 -20 -29 -41 -29 -45 0 -5 -34 -45 -75 -90 -41 -45 -75 -84 -75 -88 0
-11 -163 -175 -168 -170 -3 2 -41 -30 -85 -71 -44 -42 -91 -80 -104 -85 -13
-5 -23 -12 -23 -17 0 -8 -51 -36 -59 -32 -2 1 -8 -5 -13 -14 -5 -9 -14 -16
-19 -16 -6 0 -25 -10 -42 -22 -18 -13 -33 -22 -35 -20 -1 1 -29 -11 -62 -28
-33 -17 -63 -31 -67 -31 -5 -1 -19 -10 -32 -20 -13 -11 -30 -19 -38 -19 -7 0
-16 -7 -19 -15 -4 -8 -12 -15 -19 -15 -6 0 -20 -9 -30 -20 -10 -11 -21 -20
-25 -20 -9 0 -100 -88 -100 -96 0 -3 -10 -20 -23 -37 -122 -167 -146 -480 -54
-689 6 -16 15 -28 19 -28 5 0 8 -6 8 -13 0 -15 120 -136 120 -122 0 6 7 1 15
-9 8 -11 15 -16 15 -12 0 5 6 3 14 -3 13 -11 92 -39 134 -47 12 -2 34 -6 50
-9 82 -15 408 -20 642 -10 187 8 200 9 200 15 0 3 12 6 28 6 32 2 68 10 82 19
5 3 20 8 32 11 13 3 28 6 33 8 6 2 22 6 38 11 15 4 27 12 27 18 0 6 3 7 6 4 4
-4 20 3 35 14 16 11 29 17 29 14 0 -4 18 7 39 24 21 17 43 31 48 31 5 0 15 9
23 20 8 11 19 20 25 20 27 0 624 602 675 679 8 13 22 33 31 45 16 20 46 71 67
112 5 11 16 33 24 49 24 47 58 199 66 294 9 115 9 626 -1 726 -14 153 -60 258
-149 340 -53 49 -104 80 -148 90 -8 2 -28 9 -45 15 -16 6 -55 14 -85 17 -62 5
-151 9 -153 6z"/>
<path d="M33507 38909 c-9 -6 -21 -8 -26 -5 -5 3 -25 -1 -44 -9 -19 -8 -37
-11 -41 -8 -3 4 -6 0 -6 -7 0 -7 -3 -10 -6 -7 -4 3 -16 1 -28 -5 -11 -7 -24
-11 -28 -10 -5 1 -8 -2 -8 -6 0 -7 -39 -30 -60 -35 -3 -1 -15 -12 -26 -24 -12
-13 -27 -23 -35 -23 -8 0 -4566 -4552 -10129 -10115 -5563 -5563 -10120
-10115 -10125 -10115 -12 0 -402 -389 -418 -417 -7 -12 -35 -48 -64 -81 -28
-34 -57 -77 -64 -97 -7 -19 -17 -35 -21 -35 -4 0 -8 -8 -8 -18 0 -10 -4 -22
-10 -28 -20 -20 -33 -160 -21 -225 12 -71 65 -183 119 -254 43 -55 515 -536
521 -530 2 2 27 -16 55 -40 28 -25 55 -45 59 -45 5 0 22 -9 38 -21 16 -11 29
-17 29 -14 0 4 12 0 26 -10 15 -9 38 -19 53 -21 61 -10 157 -11 185 -2 17 5
37 10 44 11 6 0 12 4 12 8 0 4 9 6 19 4 11 -2 22 3 25 12 4 9 9 13 13 10 3 -4
18 2 33 13 16 11 31 20 35 20 4 0 32 19 62 43 30 23 2045 2032 4479 4465 2433
2432 4426 4422 4430 4422 3 0 36 28 74 63 38 34 73 62 77 62 4 0 22 10 40 23
17 12 37 22 45 22 8 0 19 5 24 10 17 17 54 23 139 23 80 0 114 -5 138 -20 6
-4 18 -8 25 -9 7 -1 28 -14 46 -28 19 -14 36 -23 38 -21 2 3 39 -27 81 -66 42
-39 77 -67 77 -62 0 4 474 -465 1053 -1043 945 -943 1157 -1151 1157 -1129 0
3 15 -5 33 -19 19 -15 38 -26 44 -26 6 0 22 -9 37 -21 14 -11 26 -18 26 -15 0
4 18 -5 40 -19 22 -14 40 -23 40 -21 0 3 29 -11 65 -29 36 -19 65 -32 65 -29
0 3 12 -4 26 -15 15 -12 31 -21 37 -21 6 0 25 -11 43 -25 18 -14 37 -25 43
-25 6 0 11 -4 11 -10 0 -5 5 -10 11 -10 6 0 33 -18 59 -40 26 -22 51 -40 55
-40 6 0 78 -53 122 -90 7 -5 16 -10 21 -10 5 0 15 -6 21 -14 11 -13 90 -55
108 -57 5 -1 19 -9 33 -19 24 -17 102 -53 108 -50 2 1 14 -6 28 -14 13 -9 24
-14 24 -11 0 4 12 -2 28 -13 15 -10 56 -33 92 -51 64 -31 101 -51 150 -81 14
-8 27 -15 30 -15 15 -3 66 -31 72 -40 4 -5 8 -6 8 -2 0 5 14 -1 30 -13 17 -12
30 -18 30 -15 0 4 11 0 25 -9 14 -9 25 -14 25 -10 0 3 16 -4 35 -16 19 -12 35
-18 35 -15 0 4 11 0 25 -9 14 -9 25 -14 25 -11 0 3 14 -1 30 -10 17 -9 30 -13
30 -11 0 3 20 -3 45 -14 25 -11 45 -17 45 -14 0 2 9 0 21 -6 11 -6 28 -13 37
-15 9 -2 47 -15 85 -28 37 -14 67 -23 67 -21 0 3 14 -2 30 -11 17 -9 30 -13
30 -11 0 3 20 -3 45 -14 25 -11 45 -17 45 -14 0 2 14 -2 30 -11 17 -9 30 -13
30 -11 0 3 21 -4 46 -15 26 -11 49 -18 51 -15 3 2 21 -2 40 -10 19 -9 38 -13
40 -10 3 3 14 1 23 -4 10 -5 33 -12 51 -14 19 -2 41 -7 49 -10 16 -6 94 -15
180 -22 82 -6 1130 -10 1130 -4 0 3 44 5 98 6 95 1 207 9 267 20 17 3 39 5 49
5 11 0 27 4 37 10 18 9 64 19 107 21 12 1 22 6 22 12 0 5 3 7 6 3 3 -3 23 1
44 8 21 7 41 11 44 8 3 -4 6 0 6 7 0 7 3 10 6 7 4 -3 15 -2 25 3 10 6 29 11
43 12 15 1 26 5 26 9 0 3 6 6 13 7 21 1 49 10 117 34 36 14 70 25 75 26 6 1
39 12 75 24 36 12 68 21 73 20 4 -1 7 2 7 6 0 5 6 9 13 10 22 2 42 7 54 15 7
5 21 10 30 12 28 5 266 105 281 117 6 6 12 7 12 2 0 -5 7 0 15 10 8 11 15 17
15 14 0 -3 35 12 78 34 124 65 172 88 174 86 2 -2 18 7 36 20 17 13 32 20 32
15 0 -4 4 -3 8 2 6 9 115 65 127 66 2 0 33 16 67 36 35 19 79 44 98 55 19 11
67 41 105 66 39 26 79 51 90 58 11 6 43 25 72 42 28 17 54 28 57 25 3 -4 6 -1
6 5 0 6 12 17 28 25 54 28 107 59 123 73 8 8 21 14 27 14 6 0 16 8 21 18 6 9
11 13 11 9 0 -5 18 5 39 22 21 17 42 31 46 31 3 0 21 11 39 25 18 14 38 25 44
25 7 0 12 4 12 8 0 9 54 37 56 30 1 -1 11 8 23 22 11 14 20 21 21 16 0 -4 20
8 44 28 24 20 48 36 52 36 4 0 25 15 48 34 23 18 44 34 49 34 4 1 19 14 32 28
14 15 25 24 25 19 0 -4 27 16 60 45 33 29 60 49 60 45 0 -4 22 12 50 35 28 23
50 38 50 33 0 -4 4 -3 8 2 4 6 29 26 55 45 27 19 56 43 65 53 9 9 21 17 26 17
5 0 30 17 55 38 25 20 49 36 53 35 4 -2 16 9 27 23 11 14 21 24 23 22 3 -2 65
43 163 120 30 23 55 40 55 36 0 -3 37 26 83 65 45 40 93 81 107 91 14 11 39
31 56 45 18 14 35 25 39 25 4 0 16 11 27 26 11 14 23 23 25 20 5 -5 105 73
166 128 16 14 31 26 34 26 6 0 73 56 116 98 16 15 30 25 31 22 2 -3 44 33 94
79 51 46 92 80 92 76 0 -4 35 25 79 64 43 39 81 71 85 71 3 0 23 16 44 35 107
100 250 224 254 220 5 -6 547 536 561 563 10 17 135 158 252 285 19 20 35 40
35 43 0 3 34 43 75 89 41 45 75 86 75 90 0 4 32 42 70 85 39 43 70 81 70 85 0
5 18 25 40 46 22 21 40 42 40 47 0 4 16 23 35 42 19 19 35 39 35 45 0 5 11 19
25 29 14 10 25 23 25 28 0 6 25 38 55 73 30 34 55 65 55 69 0 4 23 35 51 69
78 95 79 97 79 103 0 4 29 39 65 79 36 40 65 76 65 79 0 4 25 37 55 74 75 90
75 90 75 97 0 4 20 31 45 59 25 29 45 57 45 61 0 5 18 30 40 56 22 26 40 51
40 55 0 4 17 28 38 53 20 25 36 47 35 48 -2 2 4 11 13 21 29 33 94 120 94 127
0 3 20 32 45 63 25 31 48 62 53 67 4 6 19 27 35 47 15 20 27 40 27 43 0 4 11
16 25 27 14 11 25 24 25 30 0 6 16 30 35 54 19 23 35 45 35 49 0 3 11 21 25
39 14 18 25 38 25 43 0 6 7 14 16 17 9 4 14 9 11 12 -3 4 4 21 16 38 12 17 27
39 32 48 6 9 34 52 64 95 30 43 62 93 73 111 28 50 55 97 70 123 7 13 15 26
18 29 3 3 11 16 18 29 8 13 23 39 33 58 11 19 28 48 39 64 11 16 29 42 40 58
11 16 28 45 39 64 10 19 25 45 33 58 7 13 16 26 19 29 3 3 56 106 119 230 62
124 136 272 166 330 29 58 62 130 74 160 12 30 25 59 29 65 4 5 16 37 26 70
10 33 22 67 26 75 9 16 131 383 168 505 32 108 51 184 51 208 0 13 4 27 10 33
5 5 16 72 25 148 21 192 22 1348 1 1506 -22 164 -55 287 -172 635 -125 374
-169 486 -255 640 -27 50 -90 173 -139 275 -114 233 -133 269 -189 353 -25 38
-50 76 -56 85 -9 15 -79 107 -105 139 -6 7 -10 15 -10 19 0 4 -6 15 -14 23
-21 24 -50 77 -158 292 -72 143 -114 215 -158 267 -33 39 -60 74 -60 79 0 11
-3313 3323 -3323 3323 -5 0 -32 20 -60 45 -42 36 -121 85 -147 90 -3 0 -22 7
-43 14 -21 7 -56 14 -77 16 -22 2 -43 6 -47 8 -5 3 -16 1 -26 -4z m-1095
-3691 c20 -9 39 -14 42 -10 3 3 6 0 6 -6 0 -7 6 -12 14 -12 7 0 24 -8 37 -19
13 -10 29 -19 34 -20 6 0 45 -32 87 -71 42 -38 80 -70 84 -70 9 0 2304 -2296
2304 -2305 0 -4 30 -40 68 -79 66 -70 152 -186 152 -206 0 -5 3 -10 8 -10 12
0 79 -151 128 -288 107 -300 207 -622 229 -742 9 -47 20 -107 26 -133 12 -65
12 -1195 -1 -1272 -6 -33 -13 -82 -16 -110 -3 -27 -10 -57 -15 -67 -5 -9 -9
-26 -9 -38 0 -12 -6 -42 -14 -68 -39 -125 -66 -210 -75 -237 -33 -94 -52 -152
-56 -165 -2 -8 -18 -55 -35 -105 -17 -49 -35 -103 -39 -120 -5 -16 -18 -51
-30 -78 -11 -26 -21 -49 -21 -52 -1 -2 -12 -30 -25 -60 -14 -31 -25 -60 -25
-64 0 -5 -3 -11 -7 -13 -5 -1 -26 -39 -47 -83 -22 -44 -46 -88 -54 -97 -8 -10
-12 -18 -8 -18 3 0 -4 -17 -17 -37 -29 -49 -77 -149 -77 -162 0 -6 -4 -11 -10
-11 -5 0 -10 -5 -10 -10 0 -14 -62 -141 -99 -205 -17 -27 -39 -66 -50 -86 -11
-19 -27 -41 -35 -48 -9 -8 -16 -19 -16 -26 0 -7 -7 -15 -15 -19 -8 -3 -15 -11
-15 -17 0 -6 -18 -33 -40 -59 -22 -26 -40 -53 -40 -59 0 -6 -7 -14 -15 -17 -8
-4 -15 -10 -15 -15 0 -4 -17 -36 -37 -71 -21 -35 -38 -65 -38 -68 -2 -9 -30
-65 -35 -70 -3 -3 -15 -26 -28 -52 -12 -27 -32 -69 -45 -95 -12 -27 -25 -49
-29 -51 -5 -2 -8 -8 -8 -14 0 -6 -11 -26 -25 -44 -14 -18 -25 -36 -25 -40 0
-8 -70 -96 -143 -178 -80 -91 -490 -506 -495 -501 -3 2 -34 -26 -71 -63 -36
-37 -68 -67 -71 -67 -3 0 -26 -17 -51 -37 -25 -21 -50 -38 -54 -38 -5 0 -16
-6 -24 -14 -27 -24 -242 -136 -261 -136 -6 0 -10 -5 -10 -10 0 -6 -3 -9 -7 -8
-10 2 -62 -22 -94 -44 -14 -9 -29 -15 -32 -11 -4 3 -9 -2 -13 -11 -3 -9 -10
-16 -15 -16 -11 0 -71 -40 -81 -55 -4 -5 -8 -6 -8 -2 0 5 -22 -10 -50 -33 -27
-23 -50 -39 -50 -35 0 4 -22 -12 -50 -35 -27 -23 -50 -39 -50 -34 0 4 -9 -3
-20 -16 -11 -13 -20 -20 -20 -16 0 4 -12 -2 -27 -14 -26 -20 -93 -53 -102 -50
-2 1 -7 -2 -10 -7 -7 -10 -119 -65 -124 -61 -2 2 -15 -5 -30 -15 -15 -9 -27
-14 -27 -10 0 5 -5 1 -10 -7 -5 -8 -13 -15 -17 -15 -11 -1 -127 -57 -133 -64
-3 -3 -23 -15 -45 -26 -22 -10 -52 -28 -67 -38 -16 -10 -28 -16 -28 -13 0 4
-18 -5 -40 -19 -22 -14 -40 -23 -40 -20 0 3 -11 -2 -25 -11 -14 -9 -25 -13
-25 -10 0 4 -11 -1 -25 -10 -14 -9 -25 -13 -25 -8 0 4 -7 -1 -15 -12 -8 -10
-15 -15 -15 -11 0 4 -10 2 -22 -5 -13 -6 -27 -13 -33 -14 -5 -2 -19 -5 -30 -8
-11 -2 -41 -13 -67 -25 -27 -11 -48 -18 -48 -15 0 2 -10 -2 -22 -10 -19 -11
-43 -20 -88 -31 -3 0 -36 -12 -75 -25 -38 -13 -73 -23 -77 -22 -5 1 -8 -2 -8
-6 0 -5 -6 -9 -12 -10 -15 0 -38 -6 -85 -21 -17 -5 -34 -7 -37 -3 -3 3 -6 0
-6 -6 0 -7 -3 -11 -7 -10 -5 1 -30 -5 -58 -15 -27 -9 -61 -18 -75 -21 -14 -2
-32 -7 -40 -10 -14 -5 -56 -15 -90 -20 -8 -1 -28 -6 -45 -9 -104 -23 -312 -32
-765 -32 -412 1 -637 10 -695 28 -11 4 -34 9 -50 11 -17 3 -41 7 -55 11 -14 3
-35 8 -47 11 -12 2 -34 9 -49 14 -15 6 -29 9 -31 6 -3 -2 -26 5 -51 16 -26 11
-55 22 -64 24 -10 2 -26 6 -35 8 -10 2 -36 12 -57 21 -22 9 -48 19 -58 21 -10
2 -27 6 -37 8 -11 3 -29 10 -40 16 -12 6 -21 8 -21 6 0 -3 -21 4 -47 15 -27
12 -56 23 -65 25 -10 2 -26 6 -35 8 -10 2 -39 13 -65 25 -27 11 -48 18 -48 15
0 -2 -11 3 -25 12 -14 9 -25 13 -25 9 0 -3 -17 4 -37 17 -21 12 -39 22 -40 21
-6 -5 -79 30 -95 45 -10 8 -18 11 -18 7 0 -5 -7 0 -15 11 -8 10 -15 15 -15 10
0 -5 -24 12 -54 37 -29 26 -56 43 -60 40 -3 -4 -575 562 -1270 1258 -867 867
-1276 1284 -1306 1329 -73 109 -94 165 -94 250 -1 84 7 137 23 153 6 6 11 18
11 26 0 8 11 29 25 47 14 18 25 37 25 42 0 5 27 39 60 75 33 36 60 68 60 71 0
8 6048 6056 6056 6056 3 0 38 29 77 65 38 35 74 62 78 59 4 -2 11 1 14 7 7 10
67 40 130 64 42 16 173 12 217 -7z"/>
<path d="M32210 32228 c-25 -5 -56 -11 -70 -14 -14 -3 -35 -6 -47 -7 -13 -1
-23 -6 -23 -11 0 -5 -3 -6 -6 -3 -4 3 -16 1 -28 -5 -11 -7 -23 -13 -26 -13
-39 -10 -60 -19 -60 -28 0 -6 -3 -7 -7 -4 -3 4 -17 0 -30 -8 -13 -9 -23 -13
-23 -10 0 4 -13 -3 -29 -14 -15 -11 -31 -18 -35 -14 -3 3 -6 1 -6 -5 0 -7 -5
-12 -11 -12 -6 0 -24 -9 -40 -21 -16 -11 -29 -17 -29 -14 0 3 -12 -2 -27 -12
-30 -20 -72 -40 -87 -41 -5 0 -12 -6 -17 -14 -5 -7 -12 -13 -16 -14 -4 0 -30
-10 -56 -22 -27 -12 -52 -22 -56 -22 -3 0 -23 -11 -44 -25 -20 -14 -37 -23
-37 -20 0 4 -13 -3 -29 -14 -16 -12 -34 -21 -40 -21 -6 0 -11 -4 -11 -10 0 -5
-5 -10 -11 -10 -26 0 -175 -139 -200 -187 -8 -15 -21 -33 -29 -40 -8 -7 -11
-13 -6 -13 4 0 2 -10 -6 -22 -14 -23 -24 -54 -52 -165 -21 -81 -21 -261 0
-356 18 -86 38 -135 80 -202 32 -50 114 -137 114 -120 0 4 9 0 19 -9 11 -10
25 -19 33 -20 7 -1 24 -8 38 -16 26 -15 280 -24 280 -10 0 4 6 7 13 7 24 1 70
12 120 30 29 9 55 16 60 15 4 -1 7 3 7 8 0 5 3 9 8 8 4 -1 17 3 30 10 12 7 22
10 22 7 0 -3 11 2 25 11 14 9 25 12 25 8 0 -5 4 -4 8 1 4 6 52 33 107 60 55
28 105 57 112 65 7 8 13 11 13 7 0 -5 12 0 28 10 33 23 84 47 95 45 4 -1 7 2
7 7 0 5 15 15 33 22 17 7 37 20 44 29 7 8 13 11 13 6 0 -4 20 8 45 28 25 21
45 34 45 30 0 -5 20 12 45 36 25 24 45 48 45 53 0 5 11 22 25 39 14 16 25 36
25 44 0 8 5 14 10 14 6 0 10 11 10 25 0 14 5 25 10 25 6 0 10 10 10 23 0 12 8
42 17 67 13 37 16 85 17 265 l0 220 -34 99 c-30 90 -40 106 -92 158 -32 32
-61 57 -65 56 -5 -1 -18 4 -31 11 -44 24 -152 33 -222 19z"/>
<path d="M29510 29860 c-82 -14 -104 -21 -180 -52 -77 -31 -118 -59 -186 -125
-46 -45 -94 -107 -94 -121 0 -6 -3 -12 -7 -14 -5 -1 -23 -31 -40 -66 -18 -34
-37 -70 -43 -80 -5 -9 -24 -48 -41 -87 -17 -38 -39 -81 -48 -95 -10 -14 -24
-41 -31 -60 -8 -19 -17 -37 -20 -40 -3 -3 -29 -51 -57 -107 -88 -172 -122
-293 -123 -433 0 -85 3 -102 29 -155 25 -52 111 -154 111 -131 0 4 14 -2 30
-14 17 -12 36 -23 43 -24 7 -1 28 -7 47 -13 67 -22 186 -32 340 -29 85 2 166
7 180 10 14 4 41 9 60 12 19 3 42 10 51 15 9 4 19 5 23 2 3 -3 6 -1 6 5 0 7 3
11 8 10 4 -1 17 3 30 10 12 7 22 10 22 6 0 -3 15 5 34 20 19 14 38 26 43 26
10 0 103 94 103 104 0 4 11 22 25 40 14 18 25 38 25 44 0 7 3 12 8 12 4 0 12
10 18 23 15 29 75 141 107 197 51 90 157 308 157 324 0 9 4 16 8 16 5 0 14 24
21 53 7 28 20 72 28 97 11 30 16 85 17 170 0 120 -1 127 -31 193 -22 47 -52
88 -93 128 -33 32 -64 58 -68 57 -4 -1 -34 11 -67 26 -33 15 -72 29 -87 31
-15 2 -32 7 -39 10 -16 10 -266 14 -319 5z"/>
<path d="M32638 29724 c-2 -1 -38 -4 -81 -6 -42 -2 -77 -6 -77 -9 0 -4 -10 -6
-22 -5 -13 1 -36 -2 -53 -7 -16 -5 -39 -10 -51 -12 -55 -8 -252 -104 -262
-127 -2 -5 -8 -8 -14 -8 -13 0 -110 -82 -155 -130 -18 -19 -33 -31 -33 -25 0
5 -92 -82 -205 -195 -113 -113 -205 -209 -205 -215 0 -5 -26 -36 -59 -67 -32
-32 -57 -59 -55 -61 2 -2 -7 -14 -21 -27 -14 -13 -25 -29 -25 -37 0 -7 -4 -13
-9 -13 -5 0 -16 -12 -24 -27 -8 -16 -26 -50 -40 -78 -35 -68 -65 -163 -82
-260 -18 -111 -27 -495 -16 -700 10 -180 25 -258 67 -340 27 -52 132 -168 145
-159 4 2 12 -4 18 -13 6 -10 11 -15 11 -10 0 4 11 0 25 -9 14 -9 25 -14 25
-11 0 3 15 0 34 -8 18 -8 46 -17 62 -21 33 -7 246 -8 284 -1 83 15 110 22 164
44 34 14 69 32 79 40 9 9 17 13 17 9 0 -10 26 12 94 80 64 64 86 89 86 99 0 4
10 21 23 38 13 18 32 50 43 72 10 22 22 42 27 43 4 2 7 8 7 13 0 17 60 136 90
177 17 23 30 45 30 48 0 4 16 26 35 50 19 23 35 47 35 53 0 13 387 401 401
401 6 0 34 20 63 45 29 25 56 42 59 38 4 -3 7 -2 7 4 0 9 35 30 54 31 5 0 12
6 17 14 5 7 12 13 16 13 4 1 19 7 33 15 14 8 29 14 33 15 4 0 12 7 17 15 5 8
10 11 10 6 0 -5 7 -3 15 4 8 7 15 9 15 4 0 -5 4 -4 8 1 4 6 27 20 52 33 102
52 109 57 201 141 32 30 59 60 59 68 0 7 4 13 9 13 18 0 75 130 97 220 7 31
13 111 14 185 0 197 -31 296 -127 396 -44 46 -133 104 -168 110 -2 0 -19 5
-37 11 -35 10 -59 15 -123 24 -42 5 -632 13 -637 8z"/>
<path d="M41427 30989 c-9 -6 -21 -7 -27 -4 -5 3 -25 -1 -44 -9 -19 -8 -37
-12 -40 -8 -3 3 -6 -1 -6 -8 0 -7 -3 -10 -6 -7 -4 3 -16 1 -28 -5 -11 -7 -23
-12 -26 -13 -3 0 -20 -10 -37 -23 -18 -13 -33 -20 -33 -16 0 4 -11 -5 -25 -20
-13 -14 -28 -26 -32 -26 -5 0 -31 -22 -58 -50 -27 -27 -50 -48 -52 -46 -5 5
-20464 -20458 -20551 -20556 -121 -136 -110 -121 -162 -225 -40 -81 -55 -175
-41 -256 12 -69 65 -181 119 -252 42 -55 515 -536 521 -530 2 2 27 -16 55 -40
28 -25 55 -45 59 -45 5 0 22 -9 38 -21 16 -11 29 -17 29 -14 0 4 12 0 26 -10
15 -9 38 -19 53 -21 61 -10 157 -11 185 -2 17 5 37 10 44 11 6 0 12 3 12 7 0
4 6 7 13 8 28 2 44 9 74 30 17 12 34 22 38 22 4 0 32 19 61 43 58 45 20714
20694 20714 20706 0 4 11 18 25 31 14 13 25 29 25 37 0 7 4 13 9 13 16 0 79
127 97 195 22 81 14 170 -22 251 -7 17 -17 41 -22 53 -19 52 -123 171 -346
398 -132 133 -242 240 -244 238 -3 -2 -28 16 -56 40 -40 36 -125 87 -138 85
-2 -1 -21 6 -42 15 -22 9 -59 19 -83 21 -24 2 -47 5 -51 8 -4 2 -15 0 -25 -5z"/>
<path d="M43386 28473 c-1 -2 -27 -5 -57 -8 -30 -3 -65 -8 -79 -10 -14 -2 -42
-7 -64 -10 -21 -3 -46 -10 -56 -15 -9 -5 -20 -7 -22 -4 -3 2 -18 -1 -34 -7
-16 -6 -38 -13 -49 -14 -11 -2 -50 -15 -87 -28 -38 -14 -68 -23 -68 -21 0 3
-10 -1 -22 -8 -13 -7 -26 -11 -30 -10 -5 1 -8 -3 -8 -9 0 -5 -4 -8 -8 -5 -4 2
-27 -4 -50 -14 -23 -11 -46 -20 -50 -21 -4 0 -16 -6 -27 -12 -11 -6 -23 -10
-27 -9 -5 1 -8 -2 -8 -8 0 -5 -5 -10 -11 -10 -6 0 -25 -10 -42 -22 -18 -13
-35 -23 -39 -23 -4 0 -27 -17 -52 -37 -25 -21 -49 -38 -54 -38 -5 0 -18 -11
-28 -25 -10 -14 -23 -25 -29 -25 -12 0 -585 -572 -585 -584 0 -5 -11 -21 -25
-35 -39 -40 -75 -88 -75 -99 0 -5 -7 -13 -16 -16 -8 -3 -13 -10 -10 -15 3 -5
0 -14 -8 -20 -17 -14 -75 -132 -111 -226 -45 -117 -50 -130 -51 -135 0 -3 -8
-30 -17 -60 -33 -105 -57 -244 -57 -328 0 -200 120 -579 245 -772 46 -70 196
-230 217 -230 5 0 24 -11 42 -25 18 -14 38 -25 44 -25 7 0 12 -3 12 -7 0 -9
35 -26 158 -77 45 -20 82 -33 82 -29 0 3 6 0 14 -6 15 -13 64 -29 111 -38 16
-3 42 -11 57 -19 16 -8 28 -12 28 -10 0 3 15 0 33 -6 40 -12 73 -19 113 -23
17 -1 40 -7 50 -13 33 -17 433 -6 465 13 5 4 17 8 26 10 61 13 227 83 273 115
14 10 28 18 33 19 15 1 72 34 79 45 4 6 8 7 8 2 0 -5 7 -3 15 4 8 7 15 9 15 4
0 -5 4 -4 8 2 8 12 115 64 131 64 6 0 11 5 11 12 0 6 3 8 6 5 4 -4 19 2 33 12
14 10 29 19 33 20 35 7 177 88 216 124 12 11 22 17 22 13 0 -6 55 35 127 94 7
6 15 10 18 10 3 0 22 12 41 28 18 15 37 27 41 27 5 0 22 10 40 23 17 12 36 22
42 22 6 0 11 5 11 10 0 6 3 9 8 8 4 -1 41 14 82 34 41 19 89 39 105 43 17 5
32 9 35 10 104 31 100 31 205 39 59 4 103 0 160 -18 6 -2 22 -6 38 -11 15 -4
27 -11 27 -17 0 -5 4 -7 9 -4 5 4 36 -20 69 -53 83 -82 106 -142 107 -281 1
-102 -5 -138 -48 -270 -18 -58 -49 -134 -56 -140 -3 -3 -17 -27 -30 -55 -26
-54 -214 -250 -231 -240 -5 3 -12 1 -15 -5 -12 -19 -266 -129 -282 -122 -2 0
-17 -4 -35 -9 -35 -11 -44 -13 -148 -27 -65 -9 -161 -8 -235 3 -22 3 -60 9
-85 12 -51 7 -295 7 -325 1 -42 -9 -125 -42 -125 -51 0 -4 -5 -5 -10 -2 -6 4
-50 -33 -98 -82 -75 -76 -90 -97 -110 -154 -82 -236 -23 -455 176 -646 42 -40
80 -73 85 -73 6 0 25 -11 42 -25 39 -29 171 -83 223 -91 20 -3 53 -9 72 -13
65 -13 351 -2 400 15 8 3 29 8 45 10 56 7 160 34 210 54 33 13 63 21 83 22 6
1 12 6 12 11 0 6 3 8 6 4 6 -6 191 68 212 85 6 6 12 7 12 4 0 -4 19 6 43 22
23 16 44 29 47 28 3 0 26 15 50 34 24 19 47 35 50 35 12 0 94 78 413 395 187
184 364 365 395 402 69 81 127 158 127 170 0 5 5 12 11 16 12 8 94 174 94 191
0 6 5 11 10 11 6 0 10 6 10 14 0 7 14 53 30 102 68 200 85 288 85 444 0 114
-4 151 -27 240 -75 288 -172 497 -306 655 -28 33 -65 77 -83 98 -17 20 -37 37
-43 37 -7 0 -25 13 -41 30 -36 38 -145 124 -145 114 0 -3 -16 6 -35 20 -19 15
-35 24 -35 20 0 -3 -6 -2 -12 4 -15 11 -252 112 -283 119 -11 2 -26 5 -32 5
-7 1 -13 4 -13 8 0 4 -6 7 -12 8 -12 0 -43 7 -73 16 -40 11 -62 16 -145 32
-35 7 -208 7 -250 0 -19 -3 -57 -8 -83 -11 -27 -2 -53 -7 -58 -11 -10 -6 -59
-15 -91 -17 -10 -1 -18 -6 -18 -11 0 -5 -3 -7 -6 -4 -3 4 -20 2 -37 -4 -18 -5
-41 -11 -52 -12 -11 -2 -33 -9 -48 -15 -15 -6 -31 -10 -35 -9 -15 3 -62 -15
-62 -24 0 -5 -3 -7 -8 -5 -4 3 -27 -5 -52 -18 -25 -13 -60 -31 -79 -40 -19 -9
-136 -118 -261 -241 -125 -123 -230 -224 -234 -224 -4 0 -34 -23 -66 -51 -32
-28 -61 -51 -65 -50 -3 1 -15 -7 -25 -19 -10 -12 -21 -21 -24 -21 -4 1 -30
-11 -59 -26 -28 -15 -54 -27 -57 -28 -3 0 -15 -6 -26 -13 -12 -6 -24 -8 -28
-5 -3 3 -6 2 -6 -4 0 -6 -12 -14 -27 -19 -16 -4 -30 -8 -33 -9 -3 -1 -36 -11
-75 -23 -108 -35 -279 -47 -322 -23 -13 6 -23 9 -23 6 0 -3 -10 1 -23 10 -13
8 -26 12 -30 9 -3 -4 -39 27 -80 67 -95 94 -119 156 -116 300 1 52 5 103 10
114 4 11 18 54 30 95 12 41 25 77 29 80 3 3 12 21 20 40 7 19 30 56 52 82 21
26 38 49 38 52 0 10 34 46 43 46 5 0 27 16 50 35 22 19 47 35 54 35 7 0 13 5
13 11 0 5 4 8 9 4 5 -3 12 -1 16 5 4 6 11 8 16 5 5 -4 9 -2 9 2 0 11 74 42
108 45 6 1 12 4 12 8 0 3 8 6 18 7 37 2 81 12 99 21 11 6 83 9 178 7 156 -3
177 -5 247 -20 72 -16 256 -23 312 -12 90 18 132 42 206 117 60 60 80 88 100
140 13 36 25 67 25 70 1 3 7 23 13 45 26 87 8 269 -34 355 -35 72 -89 147
-153 213 -36 37 -69 67 -73 67 -4 0 -30 16 -58 36 -27 19 -52 35 -54 35 -3 0
-27 9 -53 20 -27 12 -56 23 -65 25 -10 2 -28 6 -40 9 -13 3 -36 8 -51 10 -15
2 -47 7 -70 11 -42 7 -206 12 -211 7z"/>
<path d="M40379 25376 c-2 -2 -42 -6 -89 -9 -47 -3 -100 -8 -117 -11 -18 -3
-46 -8 -63 -10 -16 -3 -34 -7 -40 -11 -10 -6 -59 -16 -92 -18 -10 -1 -18 -4
-18 -7 0 -4 -6 -7 -12 -8 -7 0 -23 -3 -35 -6 -13 -3 -33 -9 -45 -12 -13 -3
-29 -6 -35 -6 -7 -1 -13 -4 -13 -8 0 -4 -6 -7 -12 -7 -25 0 -273 -107 -285
-123 -7 -8 -13 -11 -13 -7 0 5 -13 -1 -29 -12 -16 -12 -32 -21 -37 -21 -4 0
-26 -16 -50 -35 -23 -19 -45 -35 -49 -35 -4 0 -19 -13 -35 -30 -15 -16 -29
-27 -32 -25 -3 4 -1284 -1280 -1344 -1347 -13 -15 -24 -31 -24 -36 0 -5 -6
-15 -14 -21 -13 -11 -53 -86 -55 -104 0 -4 -7 -20 -15 -35 -21 -41 -29 -141
-17 -208 12 -64 71 -192 102 -220 10 -9 19 -21 19 -26 0 -5 15 -26 34 -46 65
-72 2773 -2778 2812 -2810 74 -61 128 -101 133 -96 2 2 12 -3 22 -12 9 -8 23
-17 31 -18 7 -1 24 -8 36 -15 43 -23 149 -33 218 -20 63 12 148 52 200 94 23
19 46 35 51 35 11 0 95 85 95 96 1 5 15 27 33 49 17 22 45 72 61 110 25 61 29
82 28 165 0 92 -8 124 -47 195 -6 11 -16 30 -22 43 -30 57 -121 156 -395 433
-290 291 -417 429 -444 479 -7 14 -26 48 -42 75 -26 46 -28 58 -28 155 0 86 3
111 19 139 11 18 25 42 31 53 16 27 87 99 92 93 2 -2 19 7 37 20 17 14 35 22
38 18 4 -3 7 -2 7 3 0 10 99 50 113 46 4 -1 16 2 26 7 10 6 42 13 72 16 30 3
74 7 99 10 25 2 432 7 905 10 864 6 948 8 1001 19 55 12 79 17 104 22 43 8 63
15 125 44 33 15 63 27 67 26 4 -1 14 8 22 19 9 11 16 16 16 11 0 -5 24 12 54
37 29 26 55 44 58 42 6 -6 88 80 88 91 0 5 13 22 29 39 44 45 88 132 102 202
11 55 11 69 -5 120 -14 47 -30 69 -78 116 -33 32 -63 55 -66 52 -3 -3 -16 2
-30 11 -13 8 -26 13 -29 10 -3 -3 -13 -1 -23 4 -9 5 -35 12 -56 15 -22 3 -55
8 -74 11 -19 3 -312 7 -650 9 -639 5 -694 7 -763 27 -23 6 -44 12 -47 12 -59
10 -141 80 -172 146 -18 39 -21 63 -20 175 1 72 6 162 11 200 14 91 14 514 1
591 -25 139 -35 173 -81 269 -27 57 -52 99 -83 139 -14 19 -26 38 -26 43 0 9
-38 49 -176 187 -140 141 -194 191 -194 182 0 -4 -20 9 -45 30 -25 20 -45 33
-45 30 0 -4 -15 4 -33 18 -19 15 -39 26 -46 26 -6 0 -23 7 -36 16 -14 9 -25
13 -25 10 0 -4 -11 1 -25 10 -14 9 -25 13 -25 10 0 -4 -9 -2 -21 4 -22 12 -45
18 -99 25 -19 3 -48 7 -65 10 -39 6 -400 16 -406 11z m89 -1105 c12 -6 22 -9
22 -7 0 13 100 -50 138 -87 42 -40 59 -69 88 -147 17 -44 18 -251 3 -317 -14
-60 -90 -305 -98 -318 -4 -5 -13 -28 -20 -50 -8 -22 -17 -42 -20 -45 -3 -3
-22 -36 -41 -75 -39 -79 -33 -69 -100 -152 -27 -34 -50 -66 -50 -70 0 -13
-154 -163 -167 -163 -6 0 -16 -6 -20 -13 -11 -17 -83 -70 -83 -61 0 4 -6 1
-12 -8 -15 -18 -91 -49 -133 -54 -16 -2 -40 -6 -53 -9 -32 -8 -139 13 -168 32
-13 8 -24 12 -24 8 0 -3 -15 4 -32 17 -18 13 -37 23 -41 23 -4 0 -39 28 -77
63 -38 34 -71 62 -74 62 -16 0 -276 285 -285 313 -2 7 -12 23 -21 37 -10 14
-27 54 -40 89 -43 123 -9 272 91 393 22 26 39 49 39 53 0 8 146 155 154 155 4
0 32 21 62 48 31 26 58 47 62 47 4 0 21 10 37 21 28 20 114 67 125 69 3 0 16
7 30 15 14 8 30 15 35 16 30 6 41 10 47 18 3 5 12 11 20 12 36 8 48 12 113 34
39 13 74 23 78 22 4 -1 17 3 28 8 11 6 34 13 52 16 17 3 50 8 72 13 57 12 236
7 263 -8z"/>
<path d="M37005 22590 c-16 -4 -47 -14 -68 -23 -20 -9 -39 -15 -40 -14 -2 1
-22 -13 -45 -31 -23 -19 -42 -30 -42 -26 0 4 -16 -10 -35 -30 -19 -21 -35 -34
-35 -29 0 4 -389 -381 -865 -857 -476 -476 -865 -870 -865 -875 0 -6 -11 -19
-25 -29 -14 -10 -25 -23 -25 -29 0 -6 -6 -18 -14 -26 -21 -24 -56 -90 -56
-105 0 -8 -4 -16 -10 -18 -11 -3 -17 -38 -26 -139 -7 -76 13 -162 52 -221 13
-21 24 -41 24 -45 0 -4 18 -28 40 -54 22 -26 40 -51 40 -56 0 -10 2818 -2829
2825 -2825 3 1 26 -14 51 -35 25 -21 48 -38 52 -38 4 0 19 -8 33 -18 79 -53
235 -78 314 -50 22 8 47 16 55 18 25 6 83 36 117 61 17 13 37 24 45 24 15 0
1828 1811 1828 1827 0 6 15 34 34 62 68 100 93 210 74 317 -8 48 -39 124 -50
124 -5 0 -8 6 -8 13 0 7 -27 39 -60 72 -33 33 -60 55 -60 50 0 -5 -6 -2 -12 6
-27 32 -110 56 -200 57 -53 0 -88 -3 -88 -9 0 -6 -4 -7 -10 -4 -12 8 -110 -34
-110 -48 0 -6 -3 -7 -6 -4 -4 4 -24 -7 -44 -23 -20 -16 -40 -27 -43 -23 -4 3
-267 -252 -586 -568 -318 -316 -598 -591 -622 -611 -67 -57 -96 -78 -108 -78
-6 0 -11 -4 -11 -10 0 -9 -34 -27 -110 -57 -45 -18 -152 -24 -193 -12 -18 6
-40 12 -51 14 -10 2 -24 9 -32 16 -8 6 -14 8 -14 5 0 -4 -13 2 -29 13 -16 12
-33 21 -38 21 -5 0 -15 9 -23 19 -7 11 -17 18 -20 16 -6 -4 -193 184 -229 229
-7 10 -26 43 -42 74 -92 182 -50 365 124 542 26 27 47 52 47 56 0 5 254 263
565 575 311 311 565 573 565 582 0 9 6 20 13 24 12 8 53 87 78 152 18 47 18
166 1 226 -29 101 -72 166 -174 268 -55 54 -102 96 -105 93 -3 -3 -20 6 -38
19 -17 14 -39 25 -48 25 -9 0 -18 4 -21 9 -7 10 -83 24 -141 26 -33 1 -81 -8
-150 -29 -53 -16 -142 -69 -158 -93 -4 -7 -15 -13 -23 -13 -9 0 -282 -265
-608 -590 -326 -324 -596 -590 -600 -590 -4 0 -27 -17 -52 -37 -25 -21 -48
-36 -51 -35 -3 2 -9 0 -12 -5 -12 -18 -101 -55 -143 -60 -23 -2 -45 -6 -49 -8
-3 -3 -33 0 -65 6 -76 13 -75 13 -101 27 -13 7 -23 10 -23 6 0 -3 -16 6 -35
20 -19 15 -35 24 -35 20 0 -4 -8 3 -19 14 -10 12 -22 22 -27 22 -5 0 -53 44
-105 98 -135 136 -188 225 -209 348 -16 96 32 238 110 327 22 25 40 48 40 52
0 4 241 248 535 542 294 294 535 537 535 539 0 3 30 38 66 78 36 40 72 83 79
97 20 35 69 133 70 139 1 3 7 34 14 70 13 70 3 139 -34 224 -19 44 -130 166
-152 166 -7 0 -13 5 -13 12 0 6 -3 8 -7 5 -3 -4 -12 -2 -19 3 -6 6 -20 13 -30
15 -11 2 -35 9 -54 14 -39 12 -130 13 -175 1z"/>
<path d="M34005 19598 c-59 -20 -140 -61 -162 -81 -13 -11 -23 -17 -23 -12 0
4 -18 -10 -39 -33 -21 -22 -41 -39 -43 -36 -3 2 -42 -35 -87 -84 -119 -124
-141 -149 -141 -158 0 -4 -6 -15 -14 -23 -29 -33 -87 -144 -113 -218 -13 -36
-17 -82 -17 -188 0 -172 -2 -164 189 -745 79 -239 151 -469 159 -510 20 -94
20 -225 2 -278 -18 -49 -86 -150 -86 -126 0 4 -8 0 -17 -8 -23 -20 -90 -48
-97 -40 -3 3 -6 0 -6 -5 0 -8 -31 -10 -92 -8 -90 4 -116 7 -168 20 -14 4 -34
8 -45 10 -11 1 -37 10 -58 18 -20 9 -37 14 -37 11 0 -3 -9 0 -21 6 -11 6 -29
13 -40 16 -10 2 -28 6 -38 8 -11 3 -29 10 -40 16 -12 6 -21 9 -21 6 0 -2 -30
7 -67 21 -38 13 -76 26 -85 29 -10 2 -26 6 -35 8 -10 2 -39 13 -65 25 -27 11
-48 18 -48 15 0 -2 -13 2 -30 11 -16 9 -30 13 -30 11 0 -3 -20 3 -45 14 -25
11 -45 17 -45 14 0 -2 -9 0 -21 6 -11 6 -29 13 -40 16 -45 10 -56 13 -93 29
-21 9 -40 14 -43 11 -3 -2 -20 2 -39 10 -18 8 -48 16 -66 18 -18 3 -52 9 -75
14 -52 12 -219 7 -255 -7 -16 -6 -28 -9 -28 -6 0 6 -122 -44 -149 -62 -14 -10
-29 -18 -34 -18 -4 0 -23 -12 -41 -27 -19 -16 -38 -28 -42 -28 -4 0 -22 -16
-40 -36 -19 -19 -34 -32 -34 -27 0 4 -36 -28 -80 -72 -44 -44 -80 -84 -80 -89
0 -5 -16 -23 -35 -42 -19 -18 -35 -36 -35 -39 0 -3 -10 -21 -23 -38 -74 -101
-98 -246 -56 -336 21 -45 104 -141 122 -141 4 0 23 -11 40 -24 37 -28 168 -83
247 -103 30 -7 63 -16 73 -18 39 -11 63 -16 92 -21 30 -5 67 -11 115 -20 23
-4 70 -10 130 -18 14 -1 39 -6 55 -10 64 -14 81 -18 100 -21 11 -2 31 -7 45
-10 14 -3 34 -8 45 -10 11 -2 35 -8 53 -13 17 -6 32 -9 32 -6 0 3 9 0 19 -5
10 -6 34 -13 52 -15 38 -6 72 -13 97 -20 39 -12 86 -20 177 -30 28 -3 61 -8
75 -11 32 -7 101 -18 118 -18 6 0 12 -3 12 -7 0 -3 8 -6 18 -6 19 -1 58 -8
115 -23 20 -5 37 -7 37 -5 0 3 14 -2 30 -11 17 -9 30 -13 30 -11 0 3 15 0 33
-5 30 -10 54 -14 119 -24 15 -2 32 -6 38 -10 6 -4 30 -9 53 -11 70 -8 173 -23
207 -30 34 -7 58 -12 102 -17 21 -3 42 -8 48 -12 6 -3 23 -8 38 -11 15 -2 38
-9 52 -14 14 -5 39 -11 55 -14 17 -2 48 -12 69 -21 22 -9 49 -19 60 -22 12 -2
26 -5 31 -7 6 -1 25 -10 43 -19 17 -10 32 -15 32 -12 0 3 11 -2 25 -11 14 -9
25 -13 25 -9 0 3 12 -2 28 -13 15 -10 41 -25 57 -34 54 -26 79 -42 129 -83 28
-22 53 -40 57 -40 10 0 77 -65 548 -531 234 -232 440 -428 456 -437 63 -33
140 -72 145 -72 3 -1 23 -7 45 -13 48 -14 183 -9 214 7 11 7 21 9 21 6 0 -3
10 1 23 10 13 8 27 12 30 8 4 -3 7 -1 7 5 0 7 5 12 11 12 7 0 33 17 58 38 25
20 47 35 49 33 7 -6 92 82 92 95 0 7 10 21 23 31 13 10 41 54 63 98 38 77 39
81 39 189 0 118 -4 129 -92 291 -9 16 -229 245 -490 508 -260 262 -473 482
-473 488 0 6 -18 32 -40 58 -22 26 -40 52 -40 58 0 6 -7 16 -15 23 -14 11 -95
171 -95 187 0 4 -6 20 -14 34 -15 29 -51 140 -85 260 -23 80 -26 95 -66 339
-27 167 -61 331 -92 450 -11 41 -25 104 -32 140 -7 36 -16 88 -21 115 -6 28
-12 73 -15 100 -8 69 -39 221 -85 410 -21 88 -43 194 -49 235 -50 336 -98 521
-166 635 -19 32 -35 60 -35 64 0 4 -27 33 -60 66 -33 33 -60 56 -60 51 0 -5
-6 -3 -14 3 -30 25 -151 36 -201 19z"/>
<path d="M29940 15460 c0 -4 -10 -6 -22 -5 -42 4 -203 -59 -229 -91 -6 -8 -17
-14 -23 -14 -6 0 -20 -11 -30 -25 -10 -14 -24 -25 -30 -25 -13 0 -486 -471
-486 -484 0 -5 -9 -17 -20 -26 -32 -28 -140 -200 -125 -200 2 0 -3 -16 -11
-35 -19 -46 -19 -199 1 -254 8 -23 15 -45 16 -49 1 -4 5 -17 10 -30 5 -13 9
-25 9 -27 0 -5 36 -85 81 -183 17 -35 48 -105 71 -155 23 -51 52 -112 66 -137
23 -43 73 -138 139 -260 16 -30 44 -89 63 -130 57 -127 138 -291 190 -385 49
-86 93 -176 147 -295 41 -90 111 -231 144 -290 39 -68 150 -289 175 -350 21
-50 126 -258 154 -305 42 -71 82 -151 136 -271 32 -71 76 -163 98 -204 84
-158 213 -418 241 -485 16 -38 81 -173 144 -300 107 -215 119 -235 185 -301
49 -49 82 -73 106 -79 54 -12 161 -13 200 -2 19 6 37 11 40 12 18 4 112 58
137 79 17 14 33 23 36 20 6 -6 237 224 237 238 0 5 13 26 28 46 16 20 41 66
56 102 23 54 27 79 27 155 0 99 -21 167 -78 257 -29 45 -44 65 -171 225 -75
94 -114 192 -117 293 -2 48 3 85 11 102 8 15 14 36 14 47 0 10 3 21 8 23 4 2
16 21 27 43 11 22 30 50 42 62 13 12 23 26 23 30 0 5 20 29 45 53 25 24 45 47
45 51 0 3 171 177 380 386 209 209 380 378 380 375 0 -2 29 23 65 56 35 33 77
67 92 76 84 45 132 66 168 73 69 15 183 3 222 -23 13 -8 23 -12 23 -8 0 3 16
-6 35 -20 19 -15 35 -24 35 -20 0 3 25 -15 55 -41 30 -25 55 -44 55 -40 0 3
14 -9 32 -27 18 -18 35 -33 38 -33 4 0 30 -20 58 -43 29 -24 52 -41 52 -37 0
3 14 -3 30 -15 17 -12 30 -18 30 -15 0 4 12 0 26 -10 36 -23 57 -27 162 -30
60 -2 92 1 92 8 0 5 2 8 5 5 3 -3 22 1 43 9 20 7 45 16 55 20 9 3 17 10 17 16
0 6 3 7 6 4 4 -4 24 7 44 23 20 16 40 27 42 24 7 -6 248 234 248 247 0 6 11
25 25 43 14 18 25 38 25 44 0 7 4 12 8 12 18 0 47 107 47 175 -1 95 -27 150
-111 232 -37 35 -69 61 -72 59 -3 -3 -21 7 -41 23 -35 28 -79 55 -151 93 -36
19 -46 25 -112 65 -21 13 -38 21 -38 17 0 -3 -13 4 -30 16 -16 12 -30 19 -30
16 0 -4 -18 5 -40 19 -22 14 -40 23 -40 20 0 -3 -10 0 -22 7 -13 7 -25 13 -28
13 -13 2 -228 111 -252 128 -16 10 -28 15 -28 12 0 -3 -13 3 -30 15 -16 12
-30 19 -30 15 0 -3 -20 8 -45 25 -25 17 -45 28 -45 25 0 -4 -13 3 -30 15 -16
12 -30 18 -30 15 0 -3 -13 3 -30 15 -16 12 -30 18 -30 13 0 -4 -4 -3 -8 3 -4
6 -38 23 -77 38 -38 15 -82 37 -97 47 -15 11 -28 18 -28 15 0 -8 -123 56 -132
69 -4 5 -8 6 -8 2 0 -5 -13 1 -29 12 -16 12 -33 21 -39 21 -5 0 -21 9 -36 21
-14 11 -26 18 -26 15 0 -4 -18 5 -40 19 -22 14 -40 23 -40 19 0 -3 -15 5 -32
18 -18 13 -34 21 -36 20 -1 -2 -23 6 -47 17 -25 12 -64 30 -88 41 -24 11 -47
20 -51 20 -4 0 -22 10 -39 22 -18 13 -32 21 -32 19 0 -3 -11 2 -25 10 -62 36
-87 50 -120 65 -19 9 -43 23 -52 32 -10 8 -18 12 -18 8 0 -4 -13 2 -30 14 -16
12 -30 18 -30 13 0 -4 -4 -3 -8 2 -7 10 -51 33 -62 32 -3 0 -16 6 -30 13 -14
8 -27 15 -30 15 -3 0 -21 9 -40 20 -19 11 -37 20 -40 20 -3 1 -32 14 -65 30
-33 15 -62 29 -65 29 -3 1 -11 5 -19 10 -8 5 -42 24 -75 41 -119 64 -161 87
-173 97 -7 6 -13 8 -13 4 0 -3 -18 5 -40 19 -22 14 -40 23 -40 20 0 -3 -10 0
-22 7 -13 7 -25 13 -28 13 -3 0 -21 9 -40 20 -19 11 -37 20 -40 20 -3 0 -15 6
-27 13 -13 7 -23 10 -23 7 0 -4 -12 2 -27 13 -16 11 -30 19 -33 18 -3 0 -23
10 -45 23 -22 14 -42 25 -45 26 -15 4 -68 31 -91 47 -14 9 -29 15 -33 11 -3
-3 -6 -1 -6 5 0 7 -5 12 -11 12 -6 0 -24 9 -40 21 -16 11 -29 17 -29 14 0 -3
-12 2 -27 13 -16 10 -64 34 -108 52 -44 18 -89 37 -100 43 -11 6 -22 12 -25
12 -3 0 -15 6 -27 13 -13 7 -23 10 -23 7 0 -4 -15 4 -32 17 -18 13 -34 21 -36
20 -1 -2 -23 6 -47 18 -25 12 -51 23 -57 24 -7 1 -23 7 -35 14 -12 7 -26 11
-30 10 -4 -1 -27 4 -50 11 -49 14 -143 21 -143 11z m515 -1233 c60 -18 87 -28
159 -56 44 -18 89 -37 100 -44 12 -6 23 -12 26 -12 3 -1 31 -13 63 -28 31 -14
61 -27 65 -28 4 0 19 -10 35 -21 15 -11 27 -17 27 -13 0 3 17 -6 37 -20 21
-14 42 -25 46 -25 5 0 26 -13 47 -30 21 -16 41 -30 45 -30 5 0 29 -17 54 -37
25 -21 48 -38 51 -38 3 0 40 -28 82 -63 43 -34 79 -61 82 -60 11 7 159 -138
183 -180 25 -41 28 -57 28 -129 0 -52 -5 -87 -13 -95 -6 -6 -12 -18 -12 -26 0
-7 -11 -28 -25 -46 -14 -18 -25 -38 -25 -45 0 -15 -289 -305 -297 -298 -3 4
-23 -7 -43 -23 -57 -45 -104 -61 -185 -62 -80 0 -131 28 -224 128 -46 49 -86
96 -90 105 -6 15 -40 62 -127 172 -65 83 -143 213 -201 335 -29 62 -53 115
-53 117 0 3 -11 28 -24 57 -113 249 -126 369 -48 451 20 20 42 37 49 37 7 0
13 4 13 9 0 9 142 8 175 -2z"/>
<path d="M25870 11416 c-3 -3 -21 -7 -40 -9 -42 -5 -105 -30 -114 -46 -4 -6
-11 -9 -15 -6 -5 2 -27 -12 -50 -31 -22 -20 -41 -33 -41 -29 0 4 -25 -18 -55
-49 -30 -30 -55 -59 -55 -64 0 -5 -8 -16 -18 -25 -20 -18 -73 -122 -91 -178
-15 -49 -14 -154 3 -219 18 -68 68 -154 143 -244 67 -79 2744 -2766 2756
-2766 5 0 41 -29 80 -65 39 -36 75 -65 80 -65 5 0 21 -9 36 -19 61 -44 133
-64 229 -66 50 -1 92 1 92 5 0 4 6 7 13 8 37 3 107 32 107 45 0 5 4 6 8 3 5
-3 25 8 44 24 19 16 38 26 42 23 10 -10 1676 1660 1676 1679 0 9 8 23 18 30
15 11 58 92 82 153 52 134 44 280 -23 395 -22 39 -116 140 -130 140 -5 0 -27
14 -48 31 -21 17 -39 28 -39 24 0 -3 -12 2 -27 13 -30 21 -103 54 -103 46 0
-3 -10 1 -22 7 -37 20 -228 27 -228 9 0 -4 -6 -7 -12 -8 -28 -1 -61 -12 -74
-23 -8 -6 -14 -8 -14 -3 0 5 -6 2 -13 -7 -7 -9 -16 -17 -22 -19 -26 -7 -55
-24 -55 -32 0 -4 -7 -8 -16 -8 -9 0 -204 -187 -433 -415 -230 -228 -421 -415
-425 -415 -4 0 -38 -28 -76 -62 -38 -35 -72 -62 -75 -60 -4 2 -15 -7 -26 -19
-10 -12 -19 -19 -19 -14 0 4 -6 2 -13 -4 -8 -6 -17 -8 -20 -4 -4 3 -7 0 -7 -7
0 -7 -3 -10 -7 -7 -3 4 -12 2 -19 -3 -6 -6 -23 -13 -35 -17 -40 -9 -182 -13
-193 -4 -6 4 -30 13 -53 20 -22 8 -64 31 -91 51 -28 21 -53 36 -56 33 -3 -4
-485 472 -1071 1057 -586 585 -1065 1061 -1065 1056 0 -4 -22 12 -50 36 -50
44 -154 103 -200 114 -37 9 -164 17 -170 10z"/>
<path d="M24736 9693 c-2 -2 -43 -6 -92 -9 -89 -5 -125 -8 -199 -20 -22 -4
-48 -7 -57 -7 -10 -1 -18 -6 -18 -11 0 -5 -3 -7 -6 -4 -3 4 -20 2 -37 -3 -18
-6 -43 -12 -56 -15 -13 -3 -39 -11 -57 -19 -18 -7 -35 -11 -38 -7 -3 3 -6 1
-6 -4 0 -5 -10 -10 -22 -11 -24 -2 -118 -37 -160 -59 -16 -9 -28 -12 -28 -9 0
3 -10 0 -22 -7 -13 -7 -25 -13 -28 -13 -3 0 -21 -9 -40 -20 -19 -11 -37 -19
-40 -20 -3 0 -19 -10 -37 -23 -17 -12 -35 -22 -40 -22 -4 0 -28 -16 -53 -35
-25 -19 -58 -45 -75 -57 -44 -34 -1195 -1181 -1195 -1192 0 -5 -12 -19 -27
-32 -16 -13 -24 -24 -20 -24 5 0 -5 -17 -22 -39 -17 -21 -28 -40 -25 -43 2 -3
-2 -11 -11 -18 -8 -7 -15 -21 -15 -31 0 -11 -3 -19 -8 -19 -9 0 -32 -117 -32
-166 0 -79 54 -210 124 -303 41 -54 2846 -2871 2856 -2868 3 1 27 -16 53 -38
26 -22 51 -40 55 -40 4 0 22 -10 40 -23 17 -13 32 -21 32 -17 0 3 12 -1 28 -9
49 -25 212 -44 212 -24 0 5 4 7 10 3 5 -3 25 1 45 9 19 8 35 13 35 11 0 -10
104 49 134 76 19 16 37 29 42 29 13 0 94 83 94 95 0 6 11 21 24 34 22 21 59
88 87 161 9 22 14 72 13 135 -1 87 -5 108 -28 160 -24 51 -61 110 -110 173 -6
8 -174 181 -373 383 -200 203 -363 375 -363 382 0 8 -9 22 -19 31 -29 27 -80
138 -92 203 -8 43 -8 72 1 113 13 60 73 191 96 210 8 7 14 16 14 21 0 5 23 31
50 58 28 27 50 52 50 56 0 4 92 102 205 216 113 115 205 214 205 220 0 6 16
29 35 52 19 22 35 47 35 54 0 7 5 13 10 13 6 0 15 12 21 28 17 46 54 117 62
120 4 2 7 15 7 28 0 13 3 24 8 24 4 0 16 28 26 63 11 34 23 69 27 77 22 46 66
213 95 365 26 132 25 564 0 685 -22 100 -61 214 -87 252 -11 14 -19 30 -19 35
0 5 -22 37 -50 71 -27 34 -50 66 -50 70 0 10 -303 312 -313 312 -4 0 -37 25
-74 55 -37 30 -69 53 -71 50 -2 -2 -20 7 -38 22 -19 14 -34 22 -34 18 0 -4
-11 0 -25 9 -14 9 -25 14 -25 11 0 -3 -13 1 -30 10 -16 9 -30 13 -30 11 0 -3
-15 0 -32 6 -58 17 -120 27 -223 34 -103 7 -275 11 -279 7z m-116 -1067 c140
-11 224 -43 302 -115 63 -58 98 -109 122 -181 24 -71 39 -226 31 -310 -4 -41
-9 -87 -10 -103 -7 -70 -27 -138 -63 -217 -11 -25 -25 -57 -31 -72 -6 -16 -15
-28 -21 -28 -5 0 -10 -5 -10 -11 0 -12 -69 -101 -82 -107 -5 -2 -8 -9 -8 -16
0 -13 -141 -156 -153 -156 -5 0 -28 -17 -53 -37 -25 -21 -46 -36 -48 -33 -1 3
-10 -3 -19 -12 -9 -9 -43 -26 -74 -38 -74 -28 -162 -30 -248 -6 -27 7 -94 43
-126 68 -20 15 -39 25 -42 22 -7 -7 -367 352 -367 367 0 6 -11 25 -25 43 -13
17 -36 58 -51 90 -45 99 -37 258 18 338 10 14 18 30 18 34 0 4 18 29 40 55 22
26 40 51 40 55 0 4 34 41 75 82 41 41 75 72 75 68 0 -4 24 13 52 38 29 25 58
46 64 46 6 0 17 6 23 14 21 25 181 92 241 101 14 2 41 7 60 10 19 4 52 8 72 9
21 1 40 4 42 7 5 5 54 3 156 -5z"/>
</g>
</svg>
